<?xml version="1.0" encoding="UTF-8" standalone="no"?>
<svg
   viewBox="0 0 250 312.80658"
   version="1.1"
   id="svg267"
   sodipodi:docname="untyped.svg"
   width="250"
   height="312.80658"
   inkscape:version="1.2.2 (b0a8486541, 2022-12-01)"
   xmlns:inkscape="http://www.inkscape.org/namespaces/inkscape"
   xmlns:sodipodi="http://sodipodi.sourceforge.net/DTD/sodipodi-0.dtd"
   xmlns:xlink="http://www.w3.org/1999/xlink"
   xmlns="http://www.w3.org/2000/svg"
   xmlns:svg="http://www.w3.org/2000/svg">
  <defs
     id="defs271" />
  <sodipodi:namedview
     id="namedview269"
     pagecolor="#505050"
     bordercolor="#ffffff"
     borderopacity="1"
     inkscape:showpageshadow="0"
     inkscape:pageopacity="0"
     inkscape:pagecheckerboard="1"
     inkscape:deskcolor="#505050"
     showgrid="false"
     showguides="true"
     inkscape:zoom="0.5"
     inkscape:cx="-464"
     inkscape:cy="356"
     inkscape:window-width="1918"
     inkscape:window-height="1040"
     inkscape:window-x="0"
     inkscape:window-y="38"
     inkscape:window-maximized="1"
     inkscape:current-layer="svg267">
    <inkscape:grid
       type="xygrid"
       id="grid662"
       originx="-146.9541"
       originy="-20.775621" />
  </sodipodi:namedview>
  <path
     stroke="none"
     fill="#fcfcfc"
     d="M 89.912878,0.25906635 C 84.580919,0.96776488 79.092733,2.2660804 74.003907,4.0408478 73.069359,4.366797 68.855085,5.4104317 69.41558,6.929062 69.940168,8.3508604 73.413236,6.896383 74.411805,6.7291848 78.737004,6.0049769 84.92274,3.9708311 89.027698,6.4710847 99.412195,12.796004 103.93113,29.768852 105.53632,40.878186 c 0.42995,2.977041 1.586,5.917325 1.42404,8.974312 -1.39343,26.29551 -22.072677,48.413504 -32.726394,71.380342 -2.680055,5.77781 -6.430067,11.31579 -9.785302,16.73092 -0.741213,1.1956 -3.555445,4.38313 -2.627011,5.87286 0.834606,1.3392 4.016816,0.51315 5.247516,0.36225 6.521464,-0.80116 8.767471,-1.83445 11.131796,-8.27473 6.925303,-18.86151 15.636071,-37.417916 23.605655,-55.885831 1.79772,-4.1665 3.51304,-9.003624 6.35912,-12.57581 1.26782,-1.590901 2.81753,-3.405345 4.99257,-2.328826 5.0154,2.482609 8.06909,12.801002 9.76811,17.760541 5.09331,14.866333 11.41083,29.408376 17.07766,44.055636 1.93521,5.00113 3.13408,10.37918 5.35115,15.26609 0.91577,2.01801 1.77528,4.47491 4.52221,4.11635 4.10532,-0.53517 9.06488,-4.49041 12.6456,-6.50188 1.25886,-0.70694 3.3303,-1.34369 3.12756,-3.11288 -0.44872,-3.9095 -4.11103,-9.08318 -5.88226,-12.62313 -4.60828,-9.2105 -9.4691,-18.34756 -13.69517,-27.738757 C 137.66508,77.67322 129.98064,58.519198 122.97659,39.246486 120.24922,31.742356 118.8586,23.740964 115.55117,16.408783 110.52435,5.2639878 102.60985,-1.4285344 89.912838,0.25904001 Z"
     id="path479-6"
     style="stroke-width:0.407921"
     inkscape:transform-center-x="-4.5791986"
     inkscape:transform-center-y="-119.02068"
     inkscape:tile-cx="312.5"
     inkscape:tile-cy="312.5"
     inkscape:tile-w="157.89279"
     inkscape:tile-h="222.15386"
     inkscape:tile-x0="240.50383"
     inkscape:tile-y0="20.775621" />
  <use
     x="0"
     y="0"
     inkscape:tiled-clone-of="#path479-6"
     xlink:href="#path479-6"
     id="use237"
     inkscape:transform-center-x="-14.862561"
     inkscape:transform-center-y="-112.39882" />
  <use
     x="0"
     y="0"
     inkscape:tiled-clone-of="#path479-6"
     xlink:href="#path479-6"
     id="use239"
     inkscape:transform-center-x="-7.8214045"
     inkscape:transform-center-y="15.437884"
     transform="translate(84.335561,163.59236)" />
  <use
     x="0"
     y="0"
     inkscape:tiled-clone-of="#path479-6"
     xlink:href="#path479-6"
     transform="translate(-61.635813,166.43915)"
     id="use241"
     inkscape:transform-center-x="-20.137479"
     inkscape:transform-center-y="16.598527" />
</svg>
